<svg width="158" height="68" viewBox="0 0 158 68" fill="none" xmlns="http://www.w3.org/2000/svg">
<path d="M11.3135 53.453C11.2785 53.6 5.00049 49.09 3.27749 45.446C1.55449 41.802 1.74149 37.494 1.71749 35.979C1.69349 34.464 12.1945 22.642 7.51749 29.53C6.25172 31.5931 5.71273 34.0203 5.98638 36.4252C6.26003 38.83 7.33058 41.0741 9.02749 42.8C11.1668 44.7343 13.522 46.4154 16.0465 47.81L11.3135 53.453Z" fill="#312782"/>
<path d="M2.80049 38.486C3.70049 34.031 6.32849 30.965 9.28149 27.275C9.81482 26.6117 10.3778 25.9734 10.9705 25.36L29.7515 5.96005L23.8825 4.57764e-05C14.3785 11.381 0.687487 25.069 0.082487 30.892C-0.617513 37.63 3.37049 45.628 3.27749 45.446C2.6229 43.1868 2.45957 40.8136 2.79849 38.486" fill="#009EE2"/>
<path d="M20.2375 15.826C20.2725 15.677 33.2425 28.381 33.2425 28.381L33.1175 39.169L8.87048 67.826L11.6565 52.777C11.6565 52.777 25.5285 41.933 28.2455 34.007L15.4115 20.948L20.2375 15.826Z" fill="#E5007E"/>
<path d="M3.16148 62.247L8.87148 67.826L33.1545 39.473L33.2435 28.38L3.16148 62.247Z" fill="#F8B133"/>
<path d="M51.6095 25.59C50.1022 25.5759 48.607 25.8606 47.2104 26.4277C45.8137 26.9947 44.5433 27.8329 43.4724 28.8938C42.4016 29.9547 41.5516 31.2172 40.9715 32.6085C40.3913 33.9997 40.0927 35.4922 40.0927 36.9995C40.0927 38.5069 40.3913 39.9993 40.9715 41.3906C41.5516 42.7819 42.4016 44.0444 43.4724 45.1053C44.5433 46.1662 45.8137 47.0044 47.2104 47.5714C48.607 48.1385 50.1022 48.4232 51.6095 48.409C52.8735 48.4096 54.122 48.1298 55.2649 47.59C56.4079 47.0502 57.417 46.2636 58.2195 45.287V48.45H62.9785V36.999C62.9809 33.9794 61.7851 31.0821 59.6536 28.9432C57.5222 26.8042 54.6291 25.5983 51.6095 25.59ZM51.6095 43.65C50.2923 43.6582 49.0024 43.275 47.9033 42.5491C46.8042 41.8233 45.9453 40.7874 45.4356 39.5728C44.9259 38.3582 44.7883 37.0197 45.0403 35.7268C45.2923 34.434 45.9225 33.245 46.851 32.3108C47.7795 31.3765 48.9645 30.739 50.2558 30.479C51.5471 30.219 52.8865 30.3483 54.1042 30.8505C55.3219 31.3527 56.363 32.2051 57.0957 33.2997C57.8283 34.3943 58.2195 35.6819 58.2195 36.999C58.2122 38.7537 57.5148 40.435 56.2779 41.6795C55.041 42.9241 53.364 43.6319 51.6095 43.65Z" fill="white"/>
<path d="M87.9005 25.712C86.7309 25.6898 85.5719 25.9378 84.5139 26.4368C83.4558 26.9359 82.5273 27.6724 81.8005 28.589C81.0741 27.6818 80.151 26.9514 79.1011 26.453C78.0511 25.9546 76.9017 25.7012 75.7395 25.712C70.7695 25.712 67.2985 29.434 67.2985 34.762V48.328H72.0575V34.762C72.0575 32.63 73.3225 30.471 75.7395 30.471C78.2685 30.471 79.4205 32.696 79.4205 34.762V48.328H84.1785V34.762C84.1785 32.63 85.4575 30.471 87.9015 30.471C90.0455 30.471 91.5425 32.236 91.5425 34.762V48.328H96.3015V34.765C96.3872 32.4277 95.6029 30.1416 94.1005 28.349C93.3162 27.4912 92.3567 26.8117 91.287 26.3568C90.2174 25.9018 89.0625 25.682 87.9005 25.712Z" fill="white"/>
<path d="M103.184 19.004C102.486 19.0186 101.821 19.3052 101.331 19.8028C100.841 20.3004 100.565 20.9696 100.56 21.668C100.574 22.3658 100.861 23.0304 101.359 23.519C101.857 24.0077 102.527 24.2814 103.225 24.2814C103.923 24.2814 104.593 24.0077 105.091 23.519C105.589 23.0304 105.876 22.3658 105.889 21.668C105.883 20.9563 105.595 20.276 105.088 19.7765C104.581 19.2771 103.896 18.9992 103.184 19.004Z" fill="white"/>
<path d="M105.441 26.2H100.926V48.328H105.441V26.2Z" fill="white"/>
<path d="M120.548 25.915C114.137 25.915 109.83 30.288 109.83 36.796V48.328H114.589V36.796C114.589 32.963 116.817 30.674 120.548 30.674C124.254 30.674 126.467 32.963 126.467 36.796V48.328H131.226V36.796C131.226 30.288 126.935 25.915 120.548 25.915Z" fill="white"/>
<path d="M146.216 25.793C143.938 25.7889 141.709 26.4611 139.813 27.7244C137.917 28.9878 136.438 30.7855 135.564 32.8899C134.69 34.9943 134.46 37.3107 134.904 39.5458C135.347 41.7808 136.444 43.834 138.055 45.4452C139.667 47.0565 141.72 48.1533 143.955 48.5968C146.19 49.0404 148.506 48.8106 150.611 47.9367C152.715 47.0628 154.513 45.584 155.776 43.6877C157.039 41.7913 157.712 39.5627 157.707 37.284C157.699 34.2392 156.485 31.3216 154.332 29.1686C152.179 27.0155 149.261 25.802 146.216 25.793ZM146.216 44.057C144.881 44.0612 143.574 43.6692 142.461 42.9305C141.348 42.1919 140.479 41.1399 139.965 39.9075C139.45 38.6751 139.312 37.3176 139.568 36.0069C139.825 34.6961 140.464 33.4908 141.406 32.5435C142.348 31.5962 143.549 30.9494 144.858 30.6848C146.167 30.4203 147.526 30.55 148.761 31.0574C149.997 31.5648 151.054 32.4272 151.799 33.5356C152.545 34.6439 152.945 35.9484 152.948 37.284C152.947 39.0727 152.238 40.7882 150.977 42.0568C149.716 43.3254 148.005 44.0444 146.216 44.057Z" fill="white"/>
</svg>
